<mxfile host="app.diagrams.net" modified="2020-11-26T06:53:16.195Z" agent="5.0 (Macintosh; Intel Mac OS X 11_0_1) AppleWebKit/537.36 (KHTML, like Gecko) Chrome/87.0.4280.67 Safari/537.36" etag="8d9ccnE--uZg9VkMSS6X" version="13.10.3" type="github">
  <diagram id="C5RBs43oDa-KdzZeNtuy" name="Page-1">
    <mxGraphModel dx="946" dy="513" grid="1" gridSize="10" guides="1" tooltips="1" connect="1" arrows="1" fold="1" page="1" pageScale="1" pageWidth="827" pageHeight="1169" math="0" shadow="0">
      <root>
        <mxCell id="WIyWlLk6GJQsqaUBKTNV-0" />
        <mxCell id="WIyWlLk6GJQsqaUBKTNV-1" parent="WIyWlLk6GJQsqaUBKTNV-0" />
        <mxCell id="HHuIY2mV_wX9dOldpLYa-0" value="&lt;font style=&quot;font-size: 14px&quot;&gt;ETCD&lt;/font&gt;" style="shape=cylinder3;whiteSpace=wrap;html=1;boundedLbl=1;backgroundOutline=1;size=15;fillColor=#e1d5e7;strokeColor=#9673a6;shadow=0;sketch=1;" vertex="1" parent="WIyWlLk6GJQsqaUBKTNV-1">
          <mxGeometry x="354" y="130" width="60" height="80" as="geometry" />
        </mxCell>
        <mxCell id="HHuIY2mV_wX9dOldpLYa-1" value="MYSQL" style="shape=cylinder3;whiteSpace=wrap;html=1;boundedLbl=1;backgroundOutline=1;size=15;shadow=0;sketch=1;fillColor=#f8cecc;strokeColor=#b85450;" vertex="1" parent="WIyWlLk6GJQsqaUBKTNV-1">
          <mxGeometry x="70" y="300" width="60" height="80" as="geometry" />
        </mxCell>
        <mxCell id="HHuIY2mV_wX9dOldpLYa-5" value="MYSQL" style="shape=cylinder3;whiteSpace=wrap;html=1;boundedLbl=1;backgroundOutline=1;size=15;shadow=0;sketch=1;fillColor=#f8cecc;strokeColor=#b85450;" vertex="1" parent="WIyWlLk6GJQsqaUBKTNV-1">
          <mxGeometry x="160" y="300" width="60" height="80" as="geometry" />
        </mxCell>
        <mxCell id="HHuIY2mV_wX9dOldpLYa-10" value="" style="edgeStyle=orthogonalEdgeStyle;rounded=0;orthogonalLoop=1;jettySize=auto;html=1;" edge="1" parent="WIyWlLk6GJQsqaUBKTNV-1" source="HHuIY2mV_wX9dOldpLYa-6" target="HHuIY2mV_wX9dOldpLYa-5">
          <mxGeometry relative="1" as="geometry" />
        </mxCell>
        <mxCell id="HHuIY2mV_wX9dOldpLYa-11" value="" style="edgeStyle=orthogonalEdgeStyle;rounded=0;orthogonalLoop=1;jettySize=auto;html=1;" edge="1" parent="WIyWlLk6GJQsqaUBKTNV-1" source="HHuIY2mV_wX9dOldpLYa-6" target="HHuIY2mV_wX9dOldpLYa-7">
          <mxGeometry relative="1" as="geometry" />
        </mxCell>
        <mxCell id="HHuIY2mV_wX9dOldpLYa-6" value="MYSQL" style="shape=cylinder3;whiteSpace=wrap;html=1;boundedLbl=1;backgroundOutline=1;size=15;shadow=0;sketch=1;fillColor=#f8cecc;strokeColor=#b85450;" vertex="1" parent="WIyWlLk6GJQsqaUBKTNV-1">
          <mxGeometry x="250" y="300" width="60" height="80" as="geometry" />
        </mxCell>
        <mxCell id="HHuIY2mV_wX9dOldpLYa-13" value="" style="edgeStyle=orthogonalEdgeStyle;rounded=0;orthogonalLoop=1;jettySize=auto;html=1;" edge="1" parent="WIyWlLk6GJQsqaUBKTNV-1" source="HHuIY2mV_wX9dOldpLYa-7">
          <mxGeometry relative="1" as="geometry">
            <mxPoint x="384" y="210" as="targetPoint" />
          </mxGeometry>
        </mxCell>
        <mxCell id="HHuIY2mV_wX9dOldpLYa-7" value="MongoDB" style="shape=cylinder3;whiteSpace=wrap;html=1;boundedLbl=1;backgroundOutline=1;size=15;shadow=0;sketch=1;fillColor=#dae8fc;strokeColor=#6c8ebf;" vertex="1" parent="WIyWlLk6GJQsqaUBKTNV-1">
          <mxGeometry x="354" y="300" width="60" height="80" as="geometry" />
        </mxCell>
        <mxCell id="HHuIY2mV_wX9dOldpLYa-8" value="MongoDB" style="shape=cylinder3;whiteSpace=wrap;html=1;boundedLbl=1;backgroundOutline=1;size=15;shadow=0;sketch=1;fillColor=#dae8fc;strokeColor=#6c8ebf;" vertex="1" parent="WIyWlLk6GJQsqaUBKTNV-1">
          <mxGeometry x="440" y="300" width="60" height="80" as="geometry" />
        </mxCell>
        <mxCell id="HHuIY2mV_wX9dOldpLYa-9" value="MongoDB" style="shape=cylinder3;whiteSpace=wrap;html=1;boundedLbl=1;backgroundOutline=1;size=15;shadow=0;sketch=1;fillColor=#dae8fc;strokeColor=#6c8ebf;" vertex="1" parent="WIyWlLk6GJQsqaUBKTNV-1">
          <mxGeometry x="530" y="300" width="60" height="80" as="geometry" />
        </mxCell>
      </root>
    </mxGraphModel>
  </diagram>
</mxfile>
